<?xml version="1.0" standalone="no"?>
<!DOCTYPE svg PUBLIC "-//W3C//DTD SVG 20010904//EN"
 "http://www.w3.org/TR/2001/REC-SVG-20010904/DTD/svg10.dtd">
<svg version="1.0" xmlns="http://www.w3.org/2000/svg"
 width="1280.000000pt" height="1280.000000pt" viewBox="0 0 1280.000000 1280.000000"
 preserveAspectRatio="xMidYMid meet">
<metadata>
Created by potrace 1.14, written by Peter Selinger 2001-2017
</metadata>
<g transform="translate(0.000000,1280.000000) scale(0.100000,-0.100000)"
fill="#000000" stroke="none">
<path d="M6238 12795 c-2 -1 -50 -5 -108 -9 -58 -4 -116 -9 -130 -10 -14 -2
-56 -7 -95 -10 -70 -7 -238 -31 -285 -41 -14 -3 -52 -10 -85 -16 -193 -34
-374 -81 -630 -161 -159 -50 -452 -161 -468 -177 -8 -8 50 -129 73 -154 8 -9
11 -8 197 76 67 30 124 52 127 49 3 -3 6 0 6 6 0 7 6 12 13 12 6 0 46 13 87
30 88 34 106 36 113 13 4 -10 18 -52 32 -93 23 -69 23 -76 8 -87 -9 -7 -23
-13 -30 -13 -16 0 -17 -30 -2 -67 42 -101 50 -115 67 -108 62 25 319 92 325
85 5 -4 12 -23 17 -41 23 -94 83 -325 86 -328 2 -2 39 4 81 13 79 17 97 20
166 30 20 3 54 9 75 12 20 3 48 7 62 10 14 2 62 7 108 10 81 6 82 6 83 -17 0
-13 2 -58 5 -101 3 -42 1 -78 -3 -81 -4 -3 -38 -8 -76 -12 -37 -3 -120 -15
-185 -25 -121 -19 -146 -24 -222 -41 -25 -6 -52 -12 -60 -14 -14 -3 -126 -35
-197 -56 -18 -6 -33 -12 -33 -14 0 -3 10 -33 21 -67 40 -117 34 -108 71 -96
117 37 362 93 453 104 22 3 51 7 64 10 122 26 607 26 741 -1 14 -3 43 -7 65
-10 22 -3 51 -7 65 -10 110 -22 141 -28 185 -40 28 -8 69 -19 93 -25 39 -10
43 -13 38 -38 -11 -60 -40 -148 -52 -158 -10 -8 -51 -2 -159 22 -81 18 -169
36 -197 39 -28 4 -60 9 -72 11 -58 11 -158 17 -326 17 -213 1 -303 -6 -493
-39 -151 -25 -352 -83 -470 -133 -26 -11 -51 -21 -55 -22 -21 -6 -115 -48
-172 -77 -125 -65 -160 -85 -160 -94 0 -5 43 -81 95 -169 52 -87 95 -161 95
-163 0 -3 -51 -40 -112 -84 -62 -44 -123 -88 -135 -98 -11 -11 -38 -33 -60
-50 -103 -85 -248 -242 -345 -374 -97 -133 -237 -381 -262 -465 -7 -23 -21
-15 194 -100 80 -31 149 -61 153 -65 5 -4 3 -26 -3 -50 -6 -23 -9 -44 -7 -46
4 -4 65 -20 140 -38 26 -6 29 -3 53 51 115 262 292 506 473 653 24 19 49 40
55 46 25 24 185 123 253 158 70 35 212 94 243 101 8 2 31 9 50 15 42 12 226
47 295 55 93 11 86 0 89 145 l0 45 -39 1 c-34 0 -131 -12 -250 -31 -124 -20
-332 -93 -477 -167 -262 -134 -461 -306 -651 -566 l-89 -121 -84 52 c-46 28
-84 55 -84 60 0 9 67 107 149 217 52 69 216 242 286 300 94 78 233 170 354
234 l89 48 -65 156 c-89 215 -88 209 -55 226 47 23 244 94 322 115 115 31 219
53 315 66 28 3 77 10 110 14 65 10 465 7 530 -3 311 -48 512 -106 768 -225
l82 -38 21 31 c11 17 33 52 48 78 l27 46 -71 38 c-61 33 -70 42 -65 61 8 35
64 151 76 158 21 14 298 -137 449 -244 235 -166 461 -383 631 -606 182 -238
349 -557 440 -843 19 -58 26 -71 40 -67 10 3 28 8 41 10 13 3 45 10 71 16 54
13 55 17 22 114 -125 363 -297 676 -529 965 -87 108 -286 309 -396 400 -151
125 -364 270 -510 347 -157 83 -433 201 -511 218 -8 2 -40 11 -70 20 -100 31
-154 44 -289 70 -14 3 -42 7 -64 10 -21 3 -50 7 -65 9 -74 13 -288 34 -349 36
-22 0 -23 2 -20 103 l3 102 33 3 c35 4 33 -3 36 117 l1 70 -155 -1 c-150 0
-320 -9 -370 -19 -14 -3 -57 -8 -96 -11 l-70 -6 -11 69 c-33 200 -53 305 -58
314 -4 5 -15 7 -25 4 -21 -7 -53 -14 -94 -21 -16 -3 -59 -12 -95 -19 -36 -8
-69 -11 -73 -7 -11 12 -50 172 -45 186 5 12 23 17 107 32 14 3 41 9 60 14 19
5 57 11 84 15 27 3 52 8 55 9 3 2 31 7 61 10 30 4 69 8 85 11 133 20 280 29
520 29 180 0 238 -3 424 -19 56 -5 74 -12 67 -23 -2 -4 -7 -34 -10 -67 -4 -33
-9 -75 -12 -93 -6 -32 -7 -32 -53 -28 -95 10 -311 20 -446 20 -146 0 -373 -11
-386 -20 -4 -2 -6 -13 -4 -24 2 -10 7 -47 10 -82 4 -34 11 -65 16 -69 6 -3 47
-4 92 -1 185 12 592 5 687 -12 14 -3 48 -7 75 -11 98 -12 121 -16 192 -31 81
-17 75 -4 52 -124 -15 -74 -24 -89 -51 -85 -21 3 -74 11 -135 20 -13 2 -40 6
-60 9 -116 18 -112 19 -118 -6 -8 -38 -13 -158 -6 -162 6 -4 48 -11 116 -21
221 -31 506 -106 709 -186 111 -45 344 -156 446 -215 128 -73 379 -252 490
-349 76 -67 296 -293 367 -376 36 -44 69 -79 73 -79 3 0 15 8 26 18 10 9 63
51 118 92 54 41 124 95 156 120 31 25 78 61 103 80 25 19 46 40 47 46 0 11
-19 37 -103 139 -51 63 -346 356 -411 410 -27 22 -54 45 -60 51 -6 5 -58 45
-116 87 -58 43 -114 84 -125 93 -11 9 -55 39 -97 67 -43 29 -78 56 -78 61 0
19 93 166 105 166 20 0 274 -170 360 -242 11 -9 52 -43 90 -75 39 -32 86 -72
105 -90 91 -83 125 -113 130 -113 3 0 41 35 84 77 l79 77 -128 125 c-127 124
-127 124 -144 102 l-17 -22 -109 84 c-228 174 -646 430 -674 413 -5 -3 -46
-80 -91 -171 -46 -91 -89 -165 -96 -165 -7 0 -25 7 -41 15 -85 44 -327 145
-347 145 -16 0 -71 -142 -63 -162 2 -7 33 -24 68 -37 85 -31 402 -186 509
-248 146 -85 394 -258 490 -343 136 -119 279 -255 322 -306 17 -19 17 -21 -1
-40 -44 -46 -120 -114 -128 -114 -5 0 -51 41 -103 91 -231 223 -467 404 -700
537 -90 51 -323 167 -385 192 -100 39 -164 63 -242 91 -51 17 -93 35 -93 40 0
4 25 90 55 190 30 100 55 183 55 184 0 2 -21 8 -47 15 -64 17 -64 17 -98 24
-16 3 -57 14 -90 24 -66 20 -66 19 -52 112 14 89 21 105 48 102 48 -6 267 -65
389 -104 123 -40 149 -49 282 -103 37 -15 73 -25 80 -22 14 5 78 124 78 145 0
15 -53 41 -165 82 -49 18 -101 37 -115 42 -14 5 -26 9 -27 9 -2 0 -22 7 -45
15 -43 16 -190 62 -218 69 -164 40 -271 65 -295 69 -16 3 -39 8 -50 10 -11 2
-54 9 -95 16 -41 6 -86 14 -100 17 -25 6 -676 14 -682 8z"/>
<path d="M4195 12244 c-22 -13 -52 -30 -66 -38 -15 -9 -75 -48 -134 -88 -60
-40 -124 -84 -144 -97 -19 -13 -49 -37 -66 -52 -16 -16 -33 -29 -37 -29 -4 0
-35 -24 -70 -53 -35 -29 -85 -69 -113 -89 -138 -101 -405 -432 -536 -665 l-18
-32 47 -35 47 -35 18 22 c10 12 57 69 104 127 121 147 414 436 565 557 70 56
136 107 147 113 24 12 38 -1 102 -96 l39 -56 -53 -41 c-28 -23 -54 -44 -57
-47 -3 -3 -43 -37 -90 -75 -111 -91 -130 -108 -129 -120 0 -5 21 -33 47 -61
166 -180 201 -220 201 -229 -1 -5 -55 -66 -121 -135 -118 -123 -208 -229 -284
-336 -206 -290 -295 -442 -401 -689 -19 -44 -38 -89 -43 -100 -22 -46 -101
-287 -96 -292 9 -10 170 -43 176 -36 4 4 17 40 29 78 12 39 26 79 31 90 5 11
23 58 41 105 56 144 192 409 278 538 45 68 86 129 91 135 6 7 42 55 81 107
128 171 238 287 449 474 110 97 407 306 480 336 27 11 32 11 45 -6 19 -24 85
-140 85 -148 0 -4 -53 -41 -117 -83 -111 -71 -227 -153 -282 -198 -79 -65
-214 -190 -291 -269 -108 -112 -126 -133 -228 -271 -45 -60 -86 -114 -90 -120
-23 -30 -52 -74 -52 -78 0 -5 97 -77 104 -77 15 0 216 -142 216 -153 0 -6 -10
-28 -21 -47 -82 -133 -217 -434 -244 -541 -6 -26 -5 -27 67 -44 40 -9 80 -19
89 -21 12 -3 24 17 49 88 32 91 71 183 93 223 6 11 19 38 30 60 11 22 42 78
70 125 159 267 345 482 567 658 52 41 99 78 104 83 8 7 -80 159 -93 159 -9 0
-168 -127 -230 -185 -82 -74 -184 -179 -264 -273 -47 -55 -83 -89 -90 -85 -27
16 -157 118 -157 123 0 4 8 15 18 26 9 10 56 65 105 121 262 303 552 523 914
695 60 28 109 52 110 53 3 1 -78 208 -97 250 -21 46 -40 98 -40 110 0 10 109
61 150 71 3 0 18 6 33 12 15 7 39 15 53 18 13 3 26 9 29 13 9 15 -39 171 -52
171 -27 0 -150 -44 -277 -98 -285 -121 -449 -214 -728 -412 -26 -19 -49 -32
-51 -29 -28 31 -117 153 -117 159 0 5 35 34 78 64 42 31 82 60 89 66 7 5 14
10 17 10 3 0 33 20 68 43 81 56 218 133 382 214 151 74 158 79 147 101 -10 19
-23 52 -41 100 -7 18 -17 35 -21 38 -10 6 -202 -85 -369 -175 l-114 -62 -18
23 c-10 13 -35 52 -55 87 -35 62 -35 65 -17 77 61 41 59 35 30 92 -15 29 -34
65 -44 81 l-17 29 -40 -24z"/>
<path d="M9352 11415 l-64 -63 29 -29 c39 -40 124 -140 142 -166 8 -12 18 -24
21 -27 25 -20 209 -280 287 -405 79 -128 99 -164 256 -485 9 -19 15 -25 12
-13 -3 12 -8 31 -10 44 -2 12 -16 63 -31 113 -14 50 -27 96 -29 101 -1 6 -7
23 -13 38 -7 16 -12 31 -12 35 0 8 -52 142 -95 242 -35 85 -136 287 -169 339
-14 22 -26 43 -26 45 0 3 -26 44 -59 93 -56 85 -157 204 -170 202 -3 -1 -34
-30 -69 -64z"/>
<path d="M3543 11219 c-111 -121 -124 -137 -193 -224 -30 -38 -58 -71 -62 -73
-5 -2 -8 -10 -8 -17 0 -7 -3 -15 -8 -17 -16 -7 -170 -233 -239 -353 -75 -129
-243 -475 -243 -502 0 -4 -8 -18 -18 -31 -15 -19 -22 -21 -50 -13 -30 9 -32 8
-32 -17 -1 -15 -3 -90 -6 -168 l-6 -141 81 -20 c45 -12 83 -18 85 -14 2 3 13
35 24 71 20 66 85 248 102 285 5 11 21 49 36 85 42 105 137 286 211 405 7 11
16 28 19 38 3 9 10 17 15 17 5 0 9 4 9 10 0 22 242 356 310 429 9 9 46 50 83
92 l66 75 -62 62 c-34 34 -66 62 -69 62 -4 0 -24 -19 -45 -41z"/>
<path d="M2881 10823 c-16 -43 -40 -109 -52 -148 -11 -38 -25 -81 -30 -94 -19
-46 -1 -32 32 26 18 32 59 100 91 152 l59 94 -28 23 c-15 13 -31 23 -34 24 -4
0 -21 -35 -38 -77z"/>
<path d="M6159 10826 c-2 -2 -34 -7 -71 -10 -74 -8 -89 -10 -198 -32 -114 -23
-271 -66 -289 -80 -2 -2 53 -153 63 -171 1 -1 28 7 61 18 33 11 68 21 80 23
11 3 52 11 91 20 38 8 92 18 120 22 27 3 58 9 69 11 11 3 107 7 213 9 178 4
192 3 193 -13 2 -22 2 -6 -6 -158 -4 -71 -8 -152 -9 -179 l-1 -49 44 -3 c58
-4 183 -30 268 -55 37 -11 75 -22 83 -24 103 -24 340 -155 492 -272 62 -47
188 -171 219 -214 l19 -27 -68 -54 c-37 -30 -73 -58 -81 -63 -9 -5 -37 17 -90
71 -43 44 -86 86 -97 94 -11 8 -28 22 -39 30 -11 8 -3 -7 18 -35 50 -67 78
-118 109 -196 25 -63 58 -197 58 -238 0 -22 -13 -26 165 53 28 12 121 53 207
92 139 61 157 71 151 89 -5 18 -92 159 -119 195 -217 280 -453 470 -730 589
-54 23 -108 46 -119 51 -11 5 -57 20 -102 35 -46 15 -85 31 -88 35 -5 9 14 96
36 167 l10 31 82 -25 c169 -51 383 -145 469 -205 14 -10 29 -18 33 -18 4 0 61
-38 127 -85 65 -47 120 -85 122 -85 2 0 37 39 77 87 41 49 99 115 131 148 l56
60 129 -130 c71 -72 156 -164 189 -205 61 -77 124 -168 124 -180 0 -4 -37 -31
-81 -61 l-81 -53 -27 30 c-14 17 -53 66 -86 109 -33 43 -84 103 -112 134 l-53
56 -60 -62 c-64 -65 -67 -75 -27 -115 7 -7 35 -40 61 -73 27 -33 52 -62 56
-65 4 -3 38 -53 77 -112 176 -267 295 -600 330 -918 10 -94 10 -385 0 -465 -6
-54 -29 -186 -41 -242 -6 -27 4 -30 194 -82 199 -54 181 -40 158 -119 -11 -37
-20 -71 -21 -77 -17 -77 -124 -315 -204 -450 -65 -110 -247 -365 -260 -365 -3
0 -28 19 -56 43 -110 91 -107 86 -84 109 8 7 20 24 27 38 7 13 17 29 21 34 49
59 152 215 196 296 59 107 135 280 131 298 -3 13 -121 60 -155 62 -6 0 -22
-24 -34 -52 -179 -410 -448 -735 -789 -953 -82 -53 -297 -165 -315 -165 -11 0
-34 46 -69 138 -9 23 -16 45 -16 48 0 3 30 19 68 36 300 139 565 369 748 648
161 246 251 490 293 792 13 95 6 390 -13 503 -24 146 -89 375 -107 375 -9 0
-59 -21 -119 -49 -35 -17 -44 -40 -29 -72 9 -18 56 -201 63 -244 3 -16 10 -60
16 -97 10 -67 14 -320 6 -368 -3 -14 -7 -43 -10 -65 -76 -527 -411 -993 -883
-1229 -50 -25 -95 -46 -100 -46 -4 0 -20 -6 -34 -14 -79 -41 -314 -100 -442
-111 -73 -6 -279 -6 -322 0 -149 21 -190 28 -255 46 -153 43 -190 57 -330 126
-120 59 -110 61 -179 -37 l-42 -59 23 -12 c13 -6 55 -29 93 -49 138 -74 326
-139 500 -175 218 -45 531 -41 747 9 51 12 58 11 63 -3 9 -22 85 -301 85 -311
0 -5 4 -20 10 -34 l9 -25 83 26 c268 81 533 223 764 409 51 41 97 74 103 74 6
0 30 -21 53 -47 24 -25 53 -56 64 -68 15 -15 19 -27 13 -36 -5 -8 -9 -19 -9
-24 0 -13 98 -135 109 -135 14 0 185 173 258 260 233 279 402 588 504 919 16
52 31 103 33 115 2 12 9 41 16 66 7 25 14 54 16 65 42 240 48 301 48 510 -1
185 -8 290 -29 435 -29 193 -133 548 -164 558 -12 4 -130 -45 -148 -62 -9 -8
-4 -34 21 -106 32 -94 52 -162 62 -210 3 -14 9 -41 14 -60 13 -51 39 -209 48
-287 15 -144 6 -535 -14 -605 -6 -21 -30 -22 -129 -4 l-70 12 4 89 c6 157 6
397 -2 475 -6 72 -9 93 -23 170 -4 19 -8 44 -10 55 -11 85 -77 295 -144 459
-22 55 -40 102 -40 106 0 4 46 29 103 55 56 26 131 62 167 79 36 16 68 34 71
40 8 10 -17 57 -93 179 -26 43 -48 81 -48 83 0 3 -5 10 -10 17 -6 7 -39 51
-73 98 -160 222 -399 454 -625 609 -36 24 -67 39 -70 34 -4 -6 -45 -70 -91
-144 -46 -74 -90 -145 -97 -157 l-14 -23 -153 80 c-204 105 -366 169 -527 206
-93 21 -176 37 -239 45 -71 10 -464 22 -472 15z"/>
<path d="M9419 10733 c-96 -70 -93 -60 -40 -141 26 -40 54 -84 62 -100 8 -15
16 -29 19 -32 19 -19 220 -416 220 -436 0 -10 -90 -56 -161 -83 -25 -9 -27 -7
-103 147 -86 178 -132 261 -187 345 -22 32 -39 62 -39 66 0 5 -7 14 -15 21
-20 16 -43 6 -112 -48 l-52 -42 65 -106 c132 -216 247 -460 322 -689 52 -155
94 -315 88 -330 -4 -11 -85 -33 -182 -51 -15 -3 -31 -7 -34 -9 -4 -2 -20 -6
-36 -9 -16 -3 -49 -12 -74 -19 -38 -11 -45 -17 -44 -38 2 -27 13 -106 19 -129
2 -8 6 -36 9 -62 3 -27 9 -69 13 -95 9 -61 9 -490 1 -563 -4 -30 -10 -80 -13
-110 -19 -160 -61 -328 -140 -565 -89 -267 -265 -582 -463 -830 -204 -255
-508 -515 -794 -678 -52 -30 -52 -32 -13 -107 18 -35 25 -37 46 -12 9 9 40 37
69 62 30 25 90 77 134 115 113 97 300 246 436 347 112 82 132 97 272 195 56
40 79 66 147 168 179 268 283 485 380 788 31 96 75 270 85 337 3 19 8 46 11
60 3 14 7 43 10 65 3 22 8 56 11 75 24 171 23 604 -1 729 -2 11 0 23 4 25 10
7 58 16 111 22 25 2 53 7 62 10 24 7 35 -25 45 -128 10 -107 9 -486 -1 -604
l-8 -91 33 -7 c19 -3 56 -9 84 -12 27 -3 52 -7 56 -10 26 -16 43 442 25 681
-10 137 -17 200 -41 333 -23 131 -23 131 -51 238 -45 175 -55 218 -50 229 2 6
43 24 91 39 72 23 89 26 96 15 8 -12 39 -105 45 -134 1 -5 9 -37 17 -70 19
-73 22 -83 47 -215 32 -165 45 -256 56 -386 9 -116 10 -119 17 -130 5 -9 116
-9 123 -1 2 2 13 124 20 217 2 36 7 131 10 212 l6 146 -23 4 c-22 3 -39 39
-53 114 -2 12 -18 73 -35 135 -98 366 -248 711 -453 1041 l-85 137 -64 -46z"/>
<path d="M3625 9953 c-76 -158 -191 -460 -179 -472 3 -3 41 -15 85 -27 56 -15
82 -18 88 -10 5 6 23 53 41 105 18 52 53 140 77 195 25 56 54 122 66 148 11
26 19 49 16 51 -21 17 -140 87 -147 87 -5 0 -26 -35 -47 -77z"/>
<path d="M5493 9759 c-178 -129 -336 -319 -446 -536 -31 -60 -31 -60 70 -96
54 -20 74 -23 81 -14 15 20 31 70 37 115 4 24 15 74 27 110 22 72 95 225 109
230 5 2 9 8 9 14 0 15 82 112 153 181 32 31 55 57 50 56 -4 0 -45 -27 -90 -60z"/>
<path d="M7595 9081 c-33 -15 -67 -30 -75 -33 -9 -3 -15 -17 -15 -38 0 -33 -3
-35 -60 -55 l-60 -20 -55 -111 c-31 -62 -74 -136 -96 -165 -57 -77 -56 -73
-70 -170 -7 -48 -22 -112 -32 -143 l-19 -56 36 -23 c61 -41 123 -69 131 -60 9
10 49 130 56 169 3 15 7 31 10 35 2 4 7 43 10 86 8 129 11 153 15 157 2 2 48
7 102 10 l97 5 1 -27 c11 -235 -58 -489 -190 -699 -30 -49 -39 -49 -109 -2
-24 16 -45 29 -47 29 -3 0 -36 20 -74 44 -38 25 -86 53 -108 64 l-38 20 -54
-60 c-120 -133 -316 -239 -491 -264 -42 -6 -202 -5 -255 1 -47 6 -54 4 -121
-42 -106 -72 -118 -82 -112 -89 21 -20 195 -55 308 -60 69 -4 126 -7 128 -9 3
-2 10 -60 17 -142 l5 -63 -43 -1 c-117 -2 -214 5 -291 21 -31 6 -59 12 -63 12
-5 1 -57 19 -118 40 -158 56 -141 57 -212 -12 -35 -34 -63 -65 -63 -70 0 -22
283 -128 402 -150 29 -6 64 -13 78 -16 42 -10 331 -14 385 -5 28 5 71 12 97
15 26 4 53 8 60 11 7 2 33 9 56 15 52 13 54 -6 -20 223 -27 86 -48 163 -45
170 2 6 22 18 43 26 74 26 149 64 217 108 46 29 75 42 88 38 10 -4 19 -9 19
-13 0 -4 10 -18 23 -32 12 -14 35 -41 50 -61 l27 -36 -28 -25 c-27 -25 -149
-108 -158 -108 -3 0 -12 -6 -20 -14 -12 -13 -12 -20 2 -58 32 -88 47 -118 58
-118 6 0 28 11 48 25 20 14 42 25 47 25 6 0 11 5 11 10 0 6 5 10 11 10 22 0
145 96 230 180 100 98 181 200 248 315 44 74 117 232 126 272 2 10 11 43 19
73 55 202 61 412 19 640 -19 108 -58 230 -72 230 -3 0 -33 -13 -66 -29z"/>
<path d="M9975 8550 c-2 -4 -7 -52 -10 -106 -7 -141 -16 -248 -23 -258 -3 -5
0 -6 6 -2 7 4 12 13 12 19 0 7 16 60 35 119 19 60 37 120 40 135 2 16 9 43 14
61 5 17 9 33 8 33 -9 6 -78 5 -82 -1z"/>
<path d="M6815 8235 c-46 -38 -269 -200 -293 -214 -9 -5 -14 -12 -11 -16 11
-10 152 60 205 102 50 41 150 150 143 157 -2 2 -22 -11 -44 -29z"/>
<path d="M9509 7978 c-1 -21 -8 -51 -24 -114 -9 -32 -18 -68 -20 -79 -15 -70
-95 -310 -139 -413 -30 -72 -83 -188 -98 -216 -18 -33 68 40 185 158 135 136
151 156 179 236 21 58 26 65 50 65 15 1 29 3 32 5 9 10 146 254 143 256 -1 2
-14 5 -27 7 -108 20 -101 17 -98 50 l3 32 -70 12 c-91 15 -115 16 -116 1z"/>
<path d="M5226 6842 c-31 -50 -66 -115 -66 -123 0 -15 195 -116 330 -172 86
-35 246 -89 310 -103 203 -45 325 -58 540 -58 220 0 350 14 346 37 -2 7 -6 28
-9 47 -4 19 -10 49 -13 65 -3 17 -6 36 -6 43 -1 10 -16 11 -67 5 -84 -10 -428
-10 -501 -1 -95 13 -113 16 -190 33 -181 40 -519 173 -619 245 l-30 21 -25
-39z"/>
<path d="M7685 6579 c-244 -167 -603 -314 -885 -363 -19 -3 -46 -8 -60 -11
-105 -21 -214 -29 -405 -29 -172 -1 -280 5 -357 19 -16 3 -40 7 -55 10 -134
23 -257 55 -403 106 -62 21 -117 39 -121 39 -7 0 -69 -108 -82 -143 -4 -12 -1
-20 11 -24 9 -3 35 -14 57 -23 22 -10 84 -32 137 -50 54 -17 101 -36 104 -41
3 -6 -4 -51 -17 -100 -20 -74 -27 -89 -43 -89 -21 0 -238 71 -296 97 -154 69
-260 123 -260 133 0 22 75 162 92 171 19 10 88 138 88 163 0 7 -8 16 -17 19
-10 4 -38 17 -62 31 -41 24 -45 24 -56 8 -17 -23 -118 -326 -148 -442 -19 -72
-22 -98 -14 -107 26 -26 368 -183 432 -198 6 -1 17 -5 25 -8 21 -8 93 -31 105
-33 6 -1 36 -9 67 -19 32 -9 59 -16 60 -15 2 0 26 -6 53 -14 65 -18 234 -50
239 -45 5 5 18 101 20 149 1 32 -2 35 -29 38 -35 4 -54 18 -51 35 1 7 8 46 16
87 7 41 16 79 21 84 4 4 44 3 91 -3 151 -20 201 -23 375 -25 95 -1 175 -5 179
-9 16 -15 24 -185 10 -195 -6 -5 -97 -8 -203 -8 l-191 1 -6 -40 c-3 -22 -9
-63 -12 -91 l-6 -52 54 -4 c73 -5 380 -1 453 6 74 8 142 16 175 22 14 2 54 9
90 15 69 12 304 69 380 92 25 7 51 12 57 10 6 -2 22 -34 34 -71 12 -37 25 -71
29 -75 9 -10 196 213 192 229 -1 6 5 17 13 24 8 7 15 18 15 25 0 11 -63 142
-74 152 -1 2 -43 -13 -92 -33 -207 -82 -459 -152 -615 -171 l-46 -5 -12 76
c-18 126 -20 123 47 136 31 7 84 18 117 26 33 8 67 16 75 18 281 67 635 228
862 393 58 43 65 51 55 68 -5 11 -13 22 -16 25 -3 3 -23 26 -44 53 -21 26 -41
47 -45 46 -4 -1 -52 -32 -107 -70z"/>
<path d="M4829 5698 c0 -18 -2 -42 -4 -53 -2 -11 -7 -39 -10 -63 l-6 -43 93
-43 c103 -49 312 -125 491 -181 98 -30 117 -39 117 -56 0 -28 -31 -152 -42
-166 -14 -18 -56 -7 -298 73 -124 42 -229 76 -233 77 -6 2 -77 -144 -77 -158
0 -5 49 -27 125 -55 33 -12 69 -26 80 -30 18 -7 133 -43 145 -45 3 -1 30 -8
60 -18 53 -15 247 -66 281 -72 22 -4 90 -17 109 -20 8 -1 31 -5 50 -9 50 -9
81 -13 141 -21 30 -3 68 -8 84 -10 17 -2 82 -7 145 -11 63 -3 124 -7 135 -9
11 -2 26 -4 33 -4 9 -1 11 -24 8 -96 -3 -52 -7 -99 -10 -104 -5 -8 -20 -8
-181 4 -136 9 -252 21 -305 30 -14 2 -43 7 -65 10 -105 15 -266 50 -424 91
-145 39 -175 44 -185 33 -11 -13 -59 -151 -53 -154 53 -27 56 -33 41 -81 -8
-26 -12 -49 -9 -52 10 -11 347 -7 362 4 11 7 30 8 62 2 49 -10 1517 -15 1527
-6 3 4 7 43 8 88 l3 82 -46 -6 c-25 -4 -64 -8 -86 -11 -22 -3 -53 -7 -70 -10
-16 -2 -61 -7 -100 -10 -38 -3 -80 -8 -92 -10 -38 -6 -37 -8 -59 265 -8 107
-9 108 -18 117 -4 4 -107 8 -229 9 -122 0 -249 4 -282 8 -33 3 -85 9 -115 12
-30 3 -75 7 -99 9 -40 4 -65 20 -56 35 2 3 7 32 10 63 14 114 12 112 91 109
38 -2 80 -5 94 -8 14 -2 77 -7 140 -11 271 -15 521 -4 750 33 124 20 131 22
225 43 l80 17 68 98 c37 53 67 102 67 107 0 5 5 9 10 9 6 0 10 6 10 14 0 10
-22 7 -94 -15 -112 -33 -341 -82 -446 -94 -25 -3 -54 -8 -65 -10 -121 -25
-642 -25 -773 0 -9 1 -37 6 -62 9 -25 3 -56 8 -70 11 -13 2 -42 7 -65 11 -46
7 -212 45 -299 68 -144 40 -334 112 -493 187 -57 27 -107 49 -113 49 -5 0 -10
-15 -11 -32z"/>
<path d="M7059 5046 c-2 -2 -24 -7 -49 -10 -25 -3 -55 -8 -67 -10 -11 -3 -43
-8 -70 -12 -26 -5 -51 -9 -55 -10 -5 -1 -15 -2 -24 -3 -14 -1 -15 -12 -10 -73
3 -40 5 -83 6 -95 0 -25 0 -25 135 -1 104 18 110 19 116 26 3 4 11 39 18 77 7
39 15 80 18 93 4 19 -6 30 -18 18z"/>
<path d="M4779 4873 c-4 -30 1 -184 6 -193 3 -5 14 -10 24 -10 13 0 24 16 39
58 40 109 40 108 -13 131 -53 24 -55 24 -56 14z"/>
<path d="M6070 3682 c-180 -12 -376 -47 -505 -89 -98 -31 -281 -109 -317 -134
-14 -11 -29 -19 -32 -19 -3 0 -27 -13 -53 -30 -53 -34 -45 -36 44 -15 34 8 75
17 90 20 15 2 53 9 83 15 30 6 73 13 95 16 22 2 46 7 53 9 28 10 172 17 173 9
0 -5 2 -18 4 -29 3 -11 7 -53 10 -92 5 -65 4 -73 -12 -74 -10 -1 -29 -2 -43
-4 -14 -2 -49 -6 -78 -9 -30 -3 -57 -8 -61 -10 -3 -2 -27 -7 -51 -11 -36 -5
-157 -28 -260 -50 -8 -2 -53 -13 -99 -24 -120 -30 -117 -31 -138 40 l-18 61
-84 -79 c-47 -43 -118 -118 -160 -168 -74 -90 -175 -235 -167 -242 2 -2 41 12
87 31 150 62 249 95 255 85 4 -8 64 -179 64 -185 0 -1 -13 -7 -30 -14 -36 -15
-37 -27 -9 -100 36 -96 28 -91 116 -63 73 23 207 61 245 68 26 6 20 25 105
-312 18 -70 15 -68 113 -43 19 5 53 11 75 15 22 3 65 10 95 15 30 5 79 12 109
15 30 4 63 9 75 11 31 6 115 8 121 3 2 -3 6 -48 9 -102 4 -93 3 -97 -17 -101
-33 -7 -116 -18 -167 -22 -25 -1 -56 -5 -70 -8 -14 -4 -45 -9 -70 -12 -96 -13
-423 -97 -443 -114 -5 -4 4 -44 19 -89 30 -86 36 -91 90 -70 86 32 323 84 479
105 28 3 59 9 70 11 47 13 533 11 630 -2 113 -15 173 -24 195 -30 8 -2 31 -7
50 -10 41 -7 181 -42 227 -56 29 -9 32 -14 27 -37 -6 -29 -44 -153 -50 -163
-2 -4 -30 0 -61 7 -116 28 -278 61 -338 69 -147 21 -492 27 -630 12 -106 -11
-259 -35 -330 -52 -11 -2 -40 -9 -65 -15 -59 -14 -216 -66 -310 -102 -119 -46
-370 -171 -370 -185 0 -10 47 -93 117 -208 7 -11 16 -27 20 -35 4 -8 17 -30
30 -49 13 -19 23 -37 23 -41 0 -4 -19 -20 -42 -35 -56 -36 -227 -164 -253
-188 -11 -11 -30 -26 -42 -34 -35 -23 -34 -24 53 -120 l41 -46 79 64 c43 35
81 66 84 69 22 22 177 118 281 174 l76 41 -74 178 c-41 98 -71 182 -68 187 8
12 49 30 175 76 159 59 382 111 550 130 30 3 66 8 80 10 31 5 373 5 415 -1 17
-2 55 -6 85 -10 180 -20 411 -77 576 -143 161 -65 209 -86 214 -93 3 -4 17
-10 31 -14 24 -6 30 -1 72 69 l46 76 -42 24 c-23 14 -54 30 -69 37 -16 7 -28
19 -28 27 0 8 18 52 40 99 l39 84 133 -68 c73 -37 195 -109 271 -160 76 -51
142 -93 146 -93 6 0 55 181 49 185 -2 1 -34 24 -73 51 -195 140 -494 289 -745
371 -169 55 -479 125 -550 125 -8 0 -42 4 -75 8 -33 5 -103 12 -155 15 -52 4
-98 8 -102 11 -4 3 -6 48 -5 102 l2 97 30 5 c33 6 41 29 40 130 l0 55 -180 -1
c-99 0 -214 -4 -255 -8 -41 -4 -91 -9 -110 -11 -19 -1 -61 -6 -92 -9 -32 -4
-58 -3 -58 1 0 4 -5 35 -10 68 -6 33 -13 76 -15 95 -3 19 -8 46 -11 58 -3 13
-7 42 -10 63 -3 22 -9 52 -13 67 -9 32 -17 32 -136 7 -114 -24 -165 -29 -165
-16 0 18 0 19 -16 63 -19 55 -29 128 -17 128 6 0 54 9 109 21 54 11 107 22
116 24 16 3 204 31 273 40 201 26 777 26 915 -1 8 -1 21 -3 28 -3 11 -1 12
-16 8 -68 -4 -38 -10 -84 -14 -103 -9 -40 4 -38 -187 -23 -196 15 -664 7 -694
-12 -6 -3 -9 -18 -7 -33 3 -15 8 -51 11 -81 3 -30 8 -58 10 -61 3 -4 24 -5 47
-2 24 4 171 6 328 6 251 0 346 -4 440 -19 14 -2 45 -7 70 -10 81 -10 174 -26
208 -37 23 -7 31 -15 28 -26 -2 -10 -12 -52 -21 -94 -9 -43 -19 -79 -23 -82
-4 -2 -55 4 -114 14 -143 25 -216 32 -221 23 -3 -5 -8 -47 -11 -94 -5 -66 -4
-86 6 -86 7 0 32 -3 56 -7 23 -3 61 -8 85 -11 23 -3 49 -8 58 -11 9 -2 34 -7
55 -10 119 -15 428 -107 619 -184 97 -38 374 -176 396 -196 8 -8 19 -14 23
-14 8 0 89 -52 96 -62 3 -4 17 -9 30 -10 l25 -3 -2 100 c-3 115 -2 114 -120
175 -37 19 -70 37 -73 40 -3 3 -63 33 -135 67 -132 63 -263 116 -390 158 -38
13 -73 29 -78 37 -5 8 13 81 46 191 37 123 51 180 43 185 -10 8 -80 30 -116
37 -56 11 -157 39 -166 46 -8 6 -8 21 -2 47 38 161 32 147 66 144 70 -5 549
-149 615 -184 10 -5 21 -7 24 -4 7 6 -71 116 -142 200 -49 57 -62 67 -122 86
-38 12 -72 23 -78 24 -5 2 -30 8 -55 15 -25 7 -52 14 -60 16 -8 2 -42 10 -75
18 -33 9 -73 18 -90 22 -42 7 -184 33 -220 39 -38 6 -174 23 -242 31 -29 3
-74 7 -100 10 -27 3 -128 7 -227 10 -98 2 -181 6 -184 10 -3 3 -7 25 -8 48 -1
23 -3 60 -4 82 -3 69 -2 72 31 73 17 0 34 4 37 7 8 8 13 133 6 156 -4 15 -15
16 -84 11z"/>
<path d="M6374 3657 c-3 -8 -4 -45 -2 -83 l3 -68 40 -2 c66 -4 184 -14 228
-20 23 -3 58 -7 77 -9 54 -5 119 -14 190 -27 36 -6 76 -12 90 -13 14 -2 39 -6
55 -10 58 -13 -145 92 -260 135 -99 37 -272 82 -359 95 -21 3 -42 8 -47 11 -5
3 -12 -1 -15 -9z"/>
<path d="M7463 2613 c-13 -32 -25 -72 -29 -88 -6 -31 -5 -31 98 -74 57 -24
166 -75 243 -112 76 -38 141 -69 143 -69 6 0 -9 62 -39 155 -24 75 -33 92 -56
103 -44 20 -330 142 -334 142 -2 0 -14 -26 -26 -57z"/>
<path d="M4524 2525 c-125 -61 -132 -66 -142 -102 -33 -119 -52 -189 -52 -200
0 -6 33 7 73 29 39 22 132 69 205 104 72 36 132 70 132 77 -1 29 -57 152 -70
154 -8 1 -74 -27 -146 -62z"/>
<path d="M5040 2306 c-170 -60 -223 -83 -405 -173 -143 -72 -141 -70 -240
-131 -113 -69 -105 -56 -106 -172 0 -56 2 -104 4 -107 3 -3 43 20 90 50 46 30
109 69 140 87 l56 31 24 -38 c59 -95 79 -135 71 -143 -5 -4 -62 -42 -127 -84
-65 -42 -142 -94 -172 -116 l-54 -40 25 -92 c14 -51 26 -93 28 -95 2 -2 20 11
42 28 47 38 203 149 208 149 2 0 28 16 57 35 30 19 126 71 216 115 l162 80
-70 171 c-39 94 -69 178 -67 186 2 10 49 34 128 64 69 27 128 50 132 51 8 3
-30 157 -41 170 -4 4 -49 -8 -101 -26z"/>
<path d="M6127 1304 c-1 -1 -47 -5 -102 -8 -100 -6 -113 -7 -235 -27 -131 -21
-350 -82 -350 -98 0 -3 14 -41 31 -84 28 -68 35 -78 53 -74 12 2 66 16 121 31
202 55 379 74 644 67 l43 -1 -6 -127 c-3 -71 -8 -160 -10 -199 l-4 -72 51 -6
c99 -13 122 -18 197 -36 231 -58 415 -148 645 -314 9 -7 34 7 86 49 l72 59
-39 34 c-21 18 -77 59 -124 90 -47 31 -87 59 -90 62 -3 3 -52 28 -110 56 -99
48 -147 68 -315 127 l-70 25 3 39 c1 21 10 65 20 98 21 70 16 69 156 23 236
-78 448 -189 638 -335 l57 -43 34 37 c146 159 211 245 258 338 l51 99 -24 19
c-13 10 -32 26 -43 35 -56 47 -167 115 -173 107 -18 -25 -108 -161 -112 -170
-3 -5 -25 -43 -49 -83 l-43 -72 -62 32 c-33 18 -63 36 -66 39 -5 5 -91 47
-200 97 -116 52 -313 118 -379 127 -14 1 -44 8 -66 13 -53 14 -173 30 -282 38
-86 6 -203 10 -206 8z"/>
<path d="M4599 1178 c-24 -17 -55 -42 -69 -54 -14 -13 -36 -31 -49 -41 l-23
-19 41 -82 c28 -56 46 -80 54 -75 7 4 44 33 84 64 40 31 82 64 94 73 l22 15
-47 75 c-26 42 -51 76 -55 76 -4 0 -28 -14 -52 -32z"/>
<path d="M5910 885 c-47 -7 -107 -18 -135 -25 -27 -6 -54 -13 -60 -14 -40 -10
-103 -28 -120 -35 -11 -5 -54 -21 -95 -36 -97 -36 -244 -113 -345 -181 -81
-53 -219 -163 -213 -169 25 -22 143 -105 150 -105 4 0 36 22 71 49 200 158
494 289 710 317 23 3 60 10 82 15 22 5 56 9 76 9 58 0 68 14 71 105 l3 80 -55
1 c-30 1 -93 -5 -140 -11z"/>
<path d="M6087 504 c-1 -1 -31 -5 -67 -9 -151 -15 -305 -56 -430 -113 -85 -39
-277 -155 -292 -176 -4 -6 34 -28 90 -53 l97 -42 30 19 c43 26 192 100 203
100 14 0 68 -129 75 -179 2 -13 10 -25 18 -27 8 -1 30 -6 49 -10 47 -11 463
-11 525 0 54 9 90 13 118 15 9 1 17 5 17 10 0 9 -16 17 -57 26 -10 3 -36 9
-58 14 -77 19 -131 24 -237 25 -58 1 -108 3 -111 6 -3 3 -7 37 -11 75 -4 39
-9 82 -11 96 -6 34 4 36 160 33 197 -3 337 -37 522 -124 l122 -58 85 41 c48
22 86 46 86 52 0 14 -127 96 -219 141 -123 60 -316 115 -456 130 -63 6 -243
12 -248 8z"/>
</g>
</svg>
